<?xml version="1.0" encoding="UTF-8"?>
<!DOCTYPE svg PUBLIC "-//W3C//DTD SVG 1.1//EN" "http://www.w3.org/Graphics/SVG/1.1/DTD/svg11.dtd">
<svg xmlns="http://www.w3.org/2000/svg" version="1.1" width="512px" height="512px" style="shape-rendering:geometricPrecision; text-rendering:geometricPrecision; image-rendering:optimizeQuality; fill-rule:evenodd; clip-rule:evenodd" xmlns:xlink="http://www.w3.org/1999/xlink">
<g><path style="opacity:0.984" fill="#000000" d="M 394.5,-0.5 C 404.167,-0.5 413.833,-0.5 423.5,-0.5C 463.108,6.74462 490.608,29.078 506,66.5C 508.295,73.514 510.128,80.514 511.5,87.5C 511.5,97.5 511.5,107.5 511.5,117.5C 506.442,143.113 494.442,164.946 475.5,183C 462.333,194.833 449.167,206.667 436,218.5C 429.624,225.59 426.29,233.924 426,243.5C 421.007,255.071 412.507,258.571 400.5,254C 398.391,252.859 396.558,251.359 395,249.5C 392.436,242.681 390.436,235.681 389,228.5C 387.248,225.328 385.248,222.328 383,219.5C 365.698,203.866 348.698,187.866 332,171.5C 302.9,134.283 298.566,94.2834 319,51.5C 336.248,22.6293 361.414,5.29601 394.5,-0.5 Z M 402.5,68.5 C 422.906,67.093 436.073,76.093 442,95.5C 443.005,122.162 430.172,135.328 403.5,135C 381.86,128.897 373.027,114.73 377,92.5C 381.192,79.8052 389.692,71.8052 402.5,68.5 Z"/></g>
<g><path style="opacity:0.971" fill="#000000" d="M 237.5,50.5 C 248.838,50.3335 260.172,50.5001 271.5,51C 275.089,51.2069 278.589,51.7069 282,52.5C 277.769,65.4362 274.769,78.7695 273,92.5C 262.223,83.8066 251.056,83.3066 239.5,91C 224.349,104.518 213.516,121.018 207,140.5C 203.449,149.984 200.615,159.651 198.5,169.5C 229.502,169.333 260.502,169.5 291.5,170C 298.633,182.472 307.3,193.805 317.5,204C 275.496,204.167 233.496,204.667 191.5,205.5C 186.167,238.832 186.167,272.166 191.5,305.5C 234.167,306.833 276.833,306.833 319.5,305.5C 321.889,289.111 323.223,272.611 323.5,256C 322.769,239.802 321.935,223.635 321,207.5C 331.833,217 342.667,226.5 353.5,236C 355.617,237.731 357.117,239.898 358,242.5C 358.673,263.894 357.84,285.227 355.5,306.5C 376.169,306.667 396.836,306.5 417.5,306C 419.868,299.696 421.534,293.196 422.5,286.5C 443.249,279.915 455.749,265.915 460,244.5C 461.772,327.476 427.605,390.643 357.5,434C 297.722,465.587 236.389,468.92 173.5,444C 104.947,411.426 64.4473,357.592 52,282.5C 44.1825,203.227 71.3491,139.06 133.5,90C 164.685,67.5702 199.352,54.4036 237.5,50.5 Z M 184.5,100.5 C 185.239,100.369 185.906,100.536 186.5,101C 174.703,122.555 166.37,145.388 161.5,169.5C 144.163,169.667 126.83,169.5 109.5,169C 127.991,139.008 152.991,116.174 184.5,100.5 Z M 93.5,204.5 C 114.167,204.5 134.833,204.5 155.5,204.5C 151.5,238.5 151.5,272.5 155.5,306.5C 134.591,306.827 113.758,306.493 93,305.5C 82.8599,271.738 83.0266,238.071 93.5,204.5 Z M 109.5,342.5 C 126.659,341.503 143.992,341.17 161.5,341.5C 166.834,365.853 174.834,388.853 185.5,410.5C 153.478,395.136 128.144,372.469 109.5,342.5 Z M 198.5,341.5 C 236.5,341.5 274.5,341.5 312.5,341.5C 307.8,363.776 299.3,384.443 287,403.5C 265.949,432.826 244.949,432.826 224,403.5C 211.7,384.443 203.2,363.776 198.5,341.5 Z M 349.5,341.5 C 366.846,341.167 384.179,341.5 401.5,342.5C 382.748,373.098 357.081,395.598 324.5,410C 336.298,388.441 344.631,365.608 349.5,341.5 Z"/></g>
</svg>
